<?xml version="1.0" encoding="iso-8859-1"?>
<!-- Generator: Adobe Illustrator 19.0.0, SVG Export Plug-In . SVG Version: 6.00 Build 0)  -->
<svg version="1.1" id="Capa_1" xmlns="http://www.w3.org/2000/svg" xmlns:xlink="http://www.w3.org/1999/xlink" x="0px" y="0px"
	 viewBox="0 0 378.034 378.034" style="enable-background:new 0 0 378.034 378.034;" xml:space="preserve">
<g>
	<g>
		<path d="M326.233,235.698v-90.112c0-17.408-13.824-31.232-31.232-31.232h-41.984V63.666c10.752-11.776,14.848-23.04,12.288-33.792
			c-5.12-20.48-33.792-29.184-34.816-29.696c-2.56-0.512-5.12,0-6.144,2.56c-1.024,2.048-0.512,4.608,1.536,6.144
			c0,0,4.608,4.608,1.024,20.992c-3.072,16.384,7.68,27.648,16.384,32.768v51.712h-48.128V63.666
			c10.752-11.776,14.848-23.04,12.288-33.792c-5.12-20.48-33.792-29.184-34.816-29.696c-2.56-0.512-5.12,0-6.144,2.56
			c-1.024,2.048-0.512,4.608,1.536,6.144c0,0,4.608,4.608,1.024,20.992c-3.072,16.384,7.68,27.648,16.384,32.768v51.712h-47.616
			V63.666c10.752-11.776,14.848-23.04,12.288-33.792c-5.12-20.48-33.792-29.184-34.816-29.696c-2.56-0.512-5.12,0-6.144,2.56
			c-1.024,2.048-0.512,4.608,1.536,6.144c0,0,4.608,4.608,1.024,20.992c-3.072,16.384,7.68,27.648,16.384,32.768v51.712H78.425
			c-17.408,0-31.232,13.824-31.232,31.232v90.112c-17.408,3.584-30.208,18.944-30.208,36.864v100.352c0,3.072,2.048,5.12,5.12,5.12
			h333.824c3.072,0,5.12-2.048,5.12-5.12v-99.84C361.049,253.106,345.689,237.234,326.233,235.698z M316.505,205.49v29.696h-0.512
			H57.433V174.77h0.512c3.584,0,6.144,5.12,9.728,12.288c3.584,8.192,8.704,18.432,18.944,18.432s15.36-10.24,18.944-18.432
			c3.584-7.68,6.144-12.288,9.728-12.288c3.584,0,6.144,5.12,9.728,12.288c3.584,8.192,8.704,18.432,18.944,18.432
			c10.24,0,15.36-10.24,18.944-18.432c3.584-7.68,6.144-12.288,9.728-12.288c3.584,0,6.144,5.12,9.728,12.288
			c3.584,8.192,8.704,18.432,18.944,18.432s15.36-10.24,18.944-18.432c3.584-7.68,6.144-12.288,9.728-12.288
			c3.584,0,6.144,5.12,9.728,12.288c3.584,8.192,8.704,18.432,18.944,18.432s15.36-10.24,18.944-18.432
			c3.584-7.68,6.144-12.288,9.728-12.288c3.584,0,6.144,5.12,9.728,12.288c3.584,8.192,8.704,18.432,18.944,18.432
			C316.505,205.49,316.505,205.49,316.505,205.49z M242.777,41.138v8.192c-4.096-3.584-7.68-9.216-6.144-17.408
			c1.536-7.168,1.536-12.8,1.024-17.408c7.168,4.096,15.36,10.24,17.408,17.92c1.024,4.096,0.512,9.216-2.048,13.824v-5.12
			c0-3.072-2.048-5.12-5.12-5.12C244.825,36.018,242.777,38.066,242.777,41.138z M184.921,41.138v8.192
			c-4.096-3.584-7.68-9.216-6.144-17.408c1.536-7.168,1.536-12.8,1.024-17.408c7.168,4.096,15.36,10.24,17.408,17.92
			c1.024,4.096,0.512,9.216-2.048,13.824v-5.12c0-3.072-2.048-5.12-5.12-5.12C186.969,36.018,184.921,38.066,184.921,41.138z
			 M127.065,41.138v8.192c-4.096-3.584-7.68-9.216-6.144-17.408c1.536-7.168,1.536-12.8,1.024-17.408
			c7.168,4.096,15.36,10.24,17.408,17.92c1.024,4.096,0.512,9.216-2.048,13.824v-5.12c0-3.072-2.048-5.12-5.12-5.12
			C129.113,36.018,127.065,38.066,127.065,41.138z M56.921,145.586c0-11.776,9.728-20.992,20.992-20.992h216.064
			c12.8,0,22.016,9.216,22.016,20.992v49.664c-0.512,0-0.512,0-0.512,0c-3.584,0-6.144-5.12-9.728-12.288
			c-3.584-8.192-8.704-18.432-18.944-18.432s-15.36,10.24-18.944,18.432c-3.584,7.68-6.144,12.288-9.728,12.288
			c-3.584,0-6.144-5.12-9.728-12.288c-3.584-8.192-8.704-18.432-18.944-18.432s-15.36,10.24-18.944,18.432
			c-3.584,7.68-6.144,12.288-9.728,12.288c-3.584,0-6.144-5.12-9.728-12.288c-3.584-8.192-8.704-18.432-18.944-18.432
			s-15.36,10.24-18.944,18.432c-3.584,7.68-6.144,12.288-9.728,12.288s-6.144-5.12-9.728-12.288
			c-3.584-8.192-8.704-18.432-18.944-18.432s-15.36,10.24-18.944,18.432c-3.584,7.68-6.144,12.288-9.728,12.288
			c-3.584,0-6.144-5.12-9.728-12.288c-3.584-8.192-8.704-18.432-18.944-18.432h-0.512V145.586z M347.737,367.794H27.225v-71.168
			c5.12,1.024,8.192,5.632,12.288,12.8c4.608,8.192,10.752,17.92,22.528,17.92c12.288,0,17.92-9.728,22.528-17.92
			c4.608-8.192,8.192-12.8,13.824-12.8c6.144,0,9.216,5.12,13.824,12.8c4.608,8.192,10.752,17.92,22.528,17.92
			c12.288,0,17.92-9.728,22.528-17.92c4.608-8.192,8.192-12.8,13.824-12.8c6.144,0,9.216,5.12,13.824,12.8
			c4.608,8.192,10.752,17.92,22.528,17.92c12.288,0,17.92-9.728,22.528-17.92c4.608-8.192,8.192-12.8,13.824-12.8
			c6.144,0,9.216,5.12,13.824,12.8c4.608,8.192,10.752,17.92,22.528,17.92c12.288,0,17.92-9.728,22.528-17.92
			c4.608-8.192,8.192-12.8,13.824-12.8c6.144,0,9.216,5.12,13.824,12.8c4.096,6.656,8.704,14.848,17.408,16.896V367.794z
			 M350.809,315.57c-3.072-2.048-5.632-6.144-8.704-11.264c-4.608-8.192-10.752-17.92-22.528-17.92
			c-12.288,0-17.92,9.728-22.528,17.92c-4.608,8.192-8.192,12.8-13.824,12.8c-6.144,0-9.216-5.12-13.824-12.8
			c-4.608-8.192-10.752-17.92-22.528-17.92c-12.288,0-17.92,9.728-22.528,17.92c-4.608,8.192-8.192,12.8-13.824,12.8
			c-6.144,0-9.216-5.12-13.824-12.8c-4.608-8.192-10.752-17.92-22.528-17.92c-12.288,0-17.92,9.728-22.528,17.92
			c-4.608,8.192-8.192,12.8-13.824,12.8c-6.144,0-9.216-5.12-13.824-12.8c-4.608-8.192-10.752-17.92-22.528-17.92
			c-11.776,0-17.92,9.728-22.528,17.92c-4.608,8.192-8.192,12.8-13.824,12.8c-6.144,0-9.216-5.12-13.824-12.8
			c-4.608-7.68-10.24-16.896-20.992-17.92v-13.312c0-15.36,12.288-27.648,27.648-27.648h265.216
			c15.36,0,27.648,12.288,27.648,27.648V315.57z"/>
	</g>
</g>
<g>
</g>
<g>
</g>
<g>
</g>
<g>
</g>
<g>
</g>
<g>
</g>
<g>
</g>
<g>
</g>
<g>
</g>
<g>
</g>
<g>
</g>
<g>
</g>
<g>
</g>
<g>
</g>
<g>
</g>
</svg>
